HIERARCHY
ROOT Hips
{
  OFFSET 0.000 72.574 0.000
  CHANNELS 6 Xposition Yposition Zposition Zrotation Xrotation Yrotation
  JOINT LeftUpLeg
  {
    OFFSET 7.575 1.416 2.812
    CHANNELS 6 Xposition Yposition Zposition Zrotation Xrotation Yrotation
    JOINT LeftLeg
    {
      OFFSET 0.000 -35.049 0.000
      CHANNELS 6 Xposition Yposition Zposition Zrotation Xrotation Yrotation
      JOINT LeftFoot
      {
        OFFSET 0.000 -38.941 0.000
        CHANNELS 6 Xposition Yposition Zposition Zrotation Xrotation Yrotation
        End Site
        {
          OFFSET 0.000 0.000 10.437
        }
      }
    }
  }
  JOINT RightUpLeg
  {
    OFFSET -7.575 1.416 2.812
    CHANNELS 6 Xposition Yposition Zposition Zrotation Xrotation Yrotation
    JOINT RightLeg
    {
      OFFSET 0.000 -35.049 0.000
      CHANNELS 6 Xposition Yposition Zposition Zrotation Xrotation Yrotation
      JOINT RightFoot
      {
        OFFSET 0.000 -38.941 0.000
        CHANNELS 6 Xposition Yposition Zposition Zrotation Xrotation Yrotation
        End Site
        {
          OFFSET 0.000 0.000 10.437
        }
      }
    }
  }
  JOINT Spine
  {
    OFFSET 0.000 29.049 0.000
    CHANNELS 6 Xposition Yposition Zposition Zrotation Xrotation Yrotation
    JOINT Spine1
    {
      OFFSET 0.000 21.495 0.000
      CHANNELS 6 Xposition Yposition Zposition Zrotation Xrotation Yrotation
      JOINT LeftShoulder
      {
        OFFSET 1.626 -0.222 0.025
        CHANNELS 6 Xposition Yposition Zposition Zrotation Xrotation Yrotation
        JOINT LeftArm
        {
          OFFSET 15.753 0.000 0.000
          CHANNELS 6 Xposition Yposition Zposition Zrotation Xrotation Yrotation
          JOINT LeftForeArm
          {
            OFFSET 26.023 0.000 0.000
            CHANNELS 6 Xposition Yposition Zposition Zrotation Xrotation Yrotation
            JOINT LeftHand
            {
              OFFSET 24.381 0.000 0.000
              CHANNELS 6 Xposition Yposition Zposition Zrotation Xrotation Yrotation
              JOINT LeftHandThumb1
              {
                OFFSET 4.877 -1.044 3.608
                CHANNELS 6 Xposition Yposition Zposition Zrotation Xrotation Yrotation
                JOINT LeftHandThumb2
                {
                  OFFSET 2.665 0.000 0.000
                  CHANNELS 6 Xposition Yposition Zposition Zrotation Xrotation Yrotation
                  JOINT LeftHandThumb3
                  {
                    OFFSET 2.543 -0.000 -0.000
                    CHANNELS 6 Xposition Yposition Zposition Zrotation Xrotation Yrotation
                    End Site
                    {
                      OFFSET 2.667 0.000 -0.000
                    }
                  }
                }
              }
              JOINT LeftHandIndex1
              {
                OFFSET 9.232 -0.301 2.144
                CHANNELS 6 Xposition Yposition Zposition Zrotation Xrotation Yrotation
                JOINT LeftHandIndex2
                {
                  OFFSET 4.225 0.000 0.000
                  CHANNELS 6 Xposition Yposition Zposition Zrotation Xrotation Yrotation
                  JOINT LeftHandIndex3
                  {
                    OFFSET 2.654 0.000 0.000
                    CHANNELS 6 Xposition Yposition Zposition Zrotation Xrotation Yrotation
                    End Site
                    {
                      OFFSET 1.958 0.000 0.000
                    }
                  }
                }
              }
              JOINT LeftHandMiddle1
              {
                OFFSET 8.920 0.000 -0.000
                CHANNELS 6 Xposition Yposition Zposition Zrotation Xrotation Yrotation
                JOINT LeftHandMiddle2
                {
                  OFFSET 4.863 -0.000 -0.000
                  CHANNELS 6 Xposition Yposition Zposition Zrotation Xrotation Yrotation
                  JOINT LeftHandMiddle3
                  {
                    OFFSET 2.765 0.000 0.000
                    CHANNELS 6 Xposition Yposition Zposition Zrotation Xrotation Yrotation
                    End Site
                    {
                      OFFSET 2.006 0.000 0.000
                    }
                  }
                }
              }
              JOINT LeftHandRing1
              {
                OFFSET 8.689 -0.126 -2.087
                CHANNELS 6 Xposition Yposition Zposition Zrotation Xrotation Yrotation
                JOINT LeftHandRing2
                {
                  OFFSET 4.538 0.000 0.000
                  CHANNELS 6 Xposition Yposition Zposition Zrotation Xrotation Yrotation
                  JOINT LeftHandRing3
                  {
                    OFFSET 2.305 0.000 0.000
                    CHANNELS 6 Xposition Yposition Zposition Zrotation Xrotation Yrotation
                    End Site
                    {
                      OFFSET 1.923 -0.000 0.000
                    }
                  }
                }
              }
              JOINT LeftHandPinky1
              {
                OFFSET 8.391 -0.817 -3.758
                CHANNELS 6 Xposition Yposition Zposition Zrotation Xrotation Yrotation
                JOINT LeftHandPinky2
                {
                  OFFSET 3.044 -0.000 -0.000
                  CHANNELS 6 Xposition Yposition Zposition Zrotation Xrotation Yrotation
                  JOINT LeftHandPinky3
                  {
                    OFFSET 1.975 0.000 0.000
                    CHANNELS 6 Xposition Yposition Zposition Zrotation Xrotation Yrotation
                    End Site
                    {
                      OFFSET 1.667 0.000 -0.000
                    }
                  }
                }
              }
            }
          }
        }
      }
      JOINT RightShoulder
      {
        OFFSET -1.626 -0.222 0.025
        CHANNELS 6 Xposition Yposition Zposition Zrotation Xrotation Yrotation
        JOINT RightArm
        {
          OFFSET -15.753 0.000 0.000
          CHANNELS 6 Xposition Yposition Zposition Zrotation Xrotation Yrotation
          JOINT RightForeArm
          {
            OFFSET -26.023 0.000 0.000
            CHANNELS 6 Xposition Yposition Zposition Zrotation Xrotation Yrotation
            JOINT RightHand
            {
              OFFSET -24.381 0.000 0.000
              CHANNELS 6 Xposition Yposition Zposition Zrotation Xrotation Yrotation
              JOINT RightHandThumb1
              {
                OFFSET -4.877 -1.044 3.608
                CHANNELS 6 Xposition Yposition Zposition Zrotation Xrotation Yrotation
                JOINT RightHandThumb2
                {
                  OFFSET -2.665 0.000 0.000
                  CHANNELS 6 Xposition Yposition Zposition Zrotation Xrotation Yrotation
                  JOINT RightHandThumb3
                  {
                    OFFSET -2.543 -0.000 0.000
                    CHANNELS 6 Xposition Yposition Zposition Zrotation Xrotation Yrotation
                    End Site
                    {
                      OFFSET -2.667 0.000 -0.000
                    }
                  }
                }
              }
              JOINT RightHandIndex1
              {
                OFFSET -9.232 -0.301 2.144
                CHANNELS 6 Xposition Yposition Zposition Zrotation Xrotation Yrotation
                JOINT RightHandIndex2
                {
                  OFFSET -4.225 -0.000 -0.000
                  CHANNELS 6 Xposition Yposition Zposition Zrotation Xrotation Yrotation
                  JOINT RightHandIndex3
                  {
                    OFFSET -2.654 0.000 0.000
                    CHANNELS 6 Xposition Yposition Zposition Zrotation Xrotation Yrotation
                    End Site
                    {
                      OFFSET -1.958 -0.000 -0.000
                    }
                  }
                }
              }
              JOINT RightHandMiddle1
              {
                OFFSET -8.920 0.000 0.000
                CHANNELS 6 Xposition Yposition Zposition Zrotation Xrotation Yrotation
                JOINT RightHandMiddle2
                {
                  OFFSET -4.863 -0.000 -0.000
                  CHANNELS 6 Xposition Yposition Zposition Zrotation Xrotation Yrotation
                  JOINT RightHandMiddle3
                  {
                    OFFSET -2.765 0.000 0.000
                    CHANNELS 6 Xposition Yposition Zposition Zrotation Xrotation Yrotation
                    End Site
                    {
                      OFFSET -2.006 0.000 -0.000
                    }
                  }
                }
              }
              JOINT RightHandRing1
              {
                OFFSET -8.689 -0.126 -2.087
                CHANNELS 6 Xposition Yposition Zposition Zrotation Xrotation Yrotation
                JOINT RightHandRing2
                {
                  OFFSET -4.538 -0.000 0.000
                  CHANNELS 6 Xposition Yposition Zposition Zrotation Xrotation Yrotation
                  JOINT RightHandRing3
                  {
                    OFFSET -2.305 0.000 0.000
                    CHANNELS 6 Xposition Yposition Zposition Zrotation Xrotation Yrotation
                    End Site
                    {
                      OFFSET -1.923 0.000 -0.000
                    }
                  }
                }
              }
              JOINT RightHandPinky1
              {
                OFFSET -8.391 -0.817 -3.758
                CHANNELS 6 Xposition Yposition Zposition Zrotation Xrotation Yrotation
                JOINT RightHandPinky2
                {
                  OFFSET -3.044 0.000 -0.000
                  CHANNELS 6 Xposition Yposition Zposition Zrotation Xrotation Yrotation
                  JOINT RightHandPinky3
                  {
                    OFFSET -1.975 -0.000 -0.000
                    CHANNELS 6 Xposition Yposition Zposition Zrotation Xrotation Yrotation
                    End Site
                    {
                      OFFSET -1.667 0.000 0.000
                    }
                  }
                }
              }
            }
          }
        }
      }
      JOINT Neck
      {
        OFFSET 0.000 0.714 0.000
        CHANNELS 6 Xposition Yposition Zposition Zrotation Xrotation Yrotation
        JOINT Head
        {
          OFFSET 0.000 6.444 0.000
          CHANNELS 6 Xposition Yposition Zposition Zrotation Xrotation Yrotation
          End Site
          {
            OFFSET 0.000 15.214 0.000
          }
        }
      }
    }
  }
}
MOTION
Frames:	4
Frame Time:	0.033333
-40.94254 6.59218 -241.87770 -68.81349 26.43288 16.54172 5.47307 3.03671 1.58914 -90.22763 -48.04346 -125.29284 -0.04178 -34.89491 -0.00640 -144.35880 0.79761 59.35456 -0.03728 -29.75371 -0.02700 -85.81263 -68.80181 -85.97303 -8.61470 1.47021 1.75049 -83.63536 -32.19132 -66.09988 -0.00340 -34.26810 -0.01008 93.95493 62.24692 -52.33700 0.01397 -40.59797 -0.02139 2.49167 -7.40594 18.43518 -0.02547 25.73639 -0.01689 0.83371 1.21945 -4.00862 -0.00022 19.55068 -0.00390 1.75859 1.80101 -3.86866 2.33532 2.13852 -0.35280 41.82636 5.87802 6.49058 28.61825 0.01513 -0.03832 -105.27496 18.83647 -28.51334 22.20201 0.14740 0.13115 -54.68589 6.15095 -23.16973 31.48644 -0.11501 -0.00121 -27.31915 9.13689 -40.76880 4.87700 -1.04402 3.60799 -38.84870 -18.17666 4.02960 2.66498 0.00002 0.00002 -0.00000 0.00000 5.00000 2.54301 -0.00004 -0.00001 0.00001 0.00000 60.00000 9.23200 -0.30100 2.14399 2.00000 -0.00000 0.00000 4.22501 0.00000 0.00000 1.99999 0.00000 0.00000 2.65400 0.00001 0.00000 2.00000 -0.00000 -0.00000 8.92000 0.00000 -0.00001 -79.99999 -0.00000 0.00000 4.86301 -0.00001 -0.00001 -90.00000 0.00000 0.00000 2.76499 0.00000 0.00000 -70.00000 -0.00000 0.00000 8.68900 -0.12599 -2.08701 -79.99999 -0.00000 0.00000 4.53802 0.00000 0.00000 -90.00000 0.00000 0.00000 2.30501 0.00001 0.00000 -70.00000 -0.00000 0.00000 8.39100 -0.81698 -3.75800 2.00000 -0.00000 0.00000 3.04399 -0.00004 -0.00001 1.99999 0.00000 0.00000 1.97501 0.00001 0.00001 2.00000 -0.00000 -0.00000 -1.55724 -0.22665 -0.26154 6.80064 -0.24623 -16.13809 -14.62583 -0.43574 2.05781 147.46573 -21.53587 52.29679 -22.72496 1.19621 -0.04337 63.53230 5.19968 59.48221 -17.76318 -8.42621 5.79105 -20.05190 -21.53474 -55.50176 -4.87701 -1.04400 3.60801 40.90625 11.75042 -3.91528 -2.66500 0.00000 0.00000 0.00000 0.00000 -5.00000 -2.54300 -0.00001 0.00002 0.00001 0.00000 -60.00000 -9.23200 -0.30100 2.14398 -2.00001 -0.00000 0.00000 -4.22500 -0.00001 -0.00002 -2.00000 -0.00000 -0.00000 -2.65401 0.00000 0.00000 -2.00000 -0.00001 0.00001 -8.92001 0.00000 0.00000 79.99999 -0.00000 0.00001 -4.86300 -0.00001 -0.00002 90.00000 -0.00000 0.00001 -2.76499 0.00001 0.00002 70.00000 -0.00001 0.00001 -8.68900 -0.12600 -2.08702 79.99999 -0.00000 0.00001 -4.53800 -0.00001 0.00002 90.00000 -0.00000 0.00001 -2.30499 0.00001 0.00002 70.00000 -0.00001 0.00001 -8.39100 -0.81699 -3.75803 -2.00001 -0.00000 0.00000 -3.04399 0.00001 -0.00002 -2.00000 -0.00000 -0.00000 -1.97501 -0.00001 -0.00002 -2.00000 -0.00001 0.00001 0.00025 0.65326 -0.00018 0.00001 -0.00003 -0.00000 0.00906 5.93529 0.00587 -59.35601 -41.60655 -160.37962 
-39.98593 6.42329 -242.32552 -68.08131 27.52531 12.82853 5.28150 3.11001 1.67848 -90.60744 -51.18182 -123.21796 -0.05219 -34.82419 0.02192 -143.61165 2.72804 61.53930 -0.03351 -29.75406 -0.02666 -82.56242 -76.63828 -82.63049 -8.26561 1.34246 1.83477 -85.39622 -36.68903 -69.69322 -0.02418 -34.63503 0.01834 95.72813 64.74040 -55.71761 0.05147 -40.58515 -0.03775 2.16917 5.86248 9.18155 -0.03533 25.30664 -0.05677 0.60857 0.90780 -1.32367 0.00026 19.39376 -0.00432 1.42011 1.62890 -0.91964 2.35611 2.11836 -0.27054 41.55680 4.48732 4.99636 28.57234 0.00921 -0.02935 -104.81163 19.08814 -27.92182 22.26056 0.11233 0.08645 -54.45367 7.76379 -24.65993 31.52276 -0.09002 0.00486 -24.95556 9.90425 -43.04669 4.87700 -1.04402 3.60799 -38.84870 -18.17666 4.02960 2.66498 0.00002 0.00002 -0.00000 0.00000 5.00000 2.54301 -0.00004 -0.00001 0.00001 0.00000 60.00000 9.23200 -0.30100 2.14399 2.00000 -0.00000 0.00000 4.22501 0.00000 0.00000 1.99999 0.00000 0.00000 2.65400 0.00001 0.00000 2.00000 -0.00000 -0.00000 8.92000 0.00000 -0.00001 -79.99999 -0.00000 0.00000 4.86301 -0.00001 -0.00001 -90.00000 0.00000 0.00000 2.76499 0.00000 0.00000 -70.00000 -0.00000 0.00000 8.68900 -0.12599 -2.08701 -79.99999 -0.00000 0.00000 4.53802 0.00000 0.00000 -90.00000 0.00000 0.00000 2.30501 0.00001 0.00000 -70.00000 -0.00000 0.00000 8.39100 -0.81698 -3.75800 2.00000 -0.00000 0.00000 3.04399 -0.00004 -0.00001 1.99999 0.00000 0.00000 1.97501 0.00001 0.00001 2.00000 -0.00000 -0.00000 -1.78257 -0.31916 -0.18000 8.42995 -0.34875 -12.14080 -16.74282 -0.58349 2.24133 143.66498 -15.45425 50.46987 -22.22200 1.33851 -0.43596 72.13855 13.35387 65.22702 -21.63877 -8.79630 3.80290 -11.62423 -21.45304 -37.44114 -4.87701 -1.04400 3.60801 40.90625 11.75042 -3.91528 -2.66500 0.00000 0.00000 0.00000 0.00000 -5.00000 -2.54300 -0.00001 0.00002 0.00001 0.00000 -60.00000 -9.23200 -0.30100 2.14398 -2.00001 -0.00000 0.00000 -4.22500 -0.00001 -0.00002 -2.00000 -0.00000 -0.00000 -2.65401 0.00000 0.00000 -2.00000 -0.00001 0.00001 -8.92001 0.00000 0.00000 79.99999 -0.00000 0.00001 -4.86300 -0.00001 -0.00002 90.00000 -0.00000 0.00001 -2.76499 0.00001 0.00002 70.00000 -0.00001 0.00001 -8.68900 -0.12600 -2.08702 79.99999 -0.00000 0.00001 -4.53800 -0.00001 0.00002 90.00000 -0.00000 0.00001 -2.30499 0.00001 0.00002 70.00000 -0.00001 0.00001 -8.39100 -0.81699 -3.75803 -2.00001 -0.00000 0.00000 -3.04399 0.00001 -0.00002 -2.00000 -0.00000 -0.00000 -1.97501 -0.00001 -0.00002 -2.00000 -0.00001 0.00001 0.00025 0.65359 -0.00018 0.00001 -0.00003 -0.00000 0.00982 5.91593 0.00698 -61.23233 -39.75157 -162.87888 
-39.33941 6.25960 -242.84662 -67.59171 28.38640 11.38624 5.22093 3.26803 1.73180 -90.05979 -52.26236 -123.23500 -0.04561 -35.39542 -0.00489 -142.74023 3.27414 61.83392 -0.01206 -29.74854 -0.02010 -74.29279 -82.46800 -74.27081 -8.12285 1.22925 1.83335 -87.28490 -38.75215 -75.85139 -0.06615 -35.05505 0.06045 99.31342 69.04675 -61.75811 0.06124 -40.57948 -0.02305 2.84967 14.84391 3.61123 -0.03449 25.11694 -0.05095 0.57315 0.73756 0.18504 0.00041 19.29961 -0.00536 1.24496 1.48883 0.73367 2.37211 2.09894 -0.20135 41.24686 3.32970 3.74234 28.53197 0.00331 -0.02230 -106.44418 19.18888 -28.75410 22.34565 0.09137 0.07407 -52.81801 7.79288 -23.48119 31.53242 -0.06463 0.00469 -25.03431 12.37791 -40.95167 4.87700 -1.04402 3.60799 -38.84870 -18.17666 4.02960 2.66498 0.00002 0.00002 -0.00000 0.00000 5.00000 2.54301 -0.00004 -0.00001 0.00001 0.00000 60.00000 9.23200 -0.30100 2.14399 2.00000 -0.00000 0.00000 4.22501 0.00000 0.00000 1.99999 0.00000 0.00000 2.65400 0.00001 0.00000 2.00000 -0.00000 -0.00000 8.92000 0.00000 -0.00001 -79.99999 -0.00000 0.00000 4.86301 -0.00001 -0.00001 -90.00000 0.00000 0.00000 2.76499 0.00000 0.00000 -70.00000 -0.00000 0.00000 8.68900 -0.12599 -2.08701 -79.99999 -0.00000 0.00000 4.53802 0.00000 0.00000 -90.00000 0.00000 0.00000 2.30501 0.00001 0.00000 -70.00000 -0.00000 0.00000 8.39100 -0.81698 -3.75800 2.00000 -0.00000 0.00000 3.04399 -0.00004 -0.00001 1.99999 0.00000 0.00000 1.97501 0.00001 0.00001 2.00000 -0.00000 -0.00000 -1.98490 -0.39841 -0.11777 9.71179 -0.34373 -8.99572 -18.68015 -0.62587 2.17581 140.79022 -10.43557 49.30251 -22.03823 1.19915 -0.65798 80.01585 20.00408 67.02990 -24.69050 -7.98086 2.23180 -15.69808 -21.44843 -27.90017 -4.87701 -1.04400 3.60801 40.90625 11.75042 -3.91528 -2.66500 0.00000 0.00000 0.00000 0.00000 -5.00000 -2.54300 -0.00001 0.00002 0.00001 0.00000 -60.00000 -9.23200 -0.30100 2.14398 -2.00001 -0.00000 0.00000 -4.22500 -0.00001 -0.00002 -2.00000 -0.00000 -0.00000 -2.65401 0.00000 0.00000 -2.00000 -0.00001 0.00001 -8.92001 0.00000 0.00000 79.99999 -0.00000 0.00001 -4.86300 -0.00001 -0.00002 90.00000 -0.00000 0.00001 -2.76499 0.00001 0.00002 70.00000 -0.00001 0.00001 -8.68900 -0.12600 -2.08702 79.99999 -0.00000 0.00001 -4.53800 -0.00001 0.00002 90.00000 -0.00000 0.00001 -2.30499 0.00001 0.00002 70.00000 -0.00001 0.00001 -8.39100 -0.81699 -3.75803 -2.00001 -0.00000 0.00000 -3.04399 0.00001 -0.00002 -2.00000 -0.00000 -0.00000 -1.97501 -0.00001 -0.00002 -2.00000 -0.00001 0.00001 0.00025 0.65393 -0.00018 0.00001 -0.00003 -0.00000 0.00929 5.90297 0.00708 -60.85485 -39.26846 -160.95830 
-39.06486 5.99871 -243.35699 -68.69527 27.40940 11.30382 5.15685 3.58842 1.83653 -86.58250 -52.57428 -122.14993 -0.03302 -35.97572 -0.01787 -142.01735 2.93874 61.89856 0.00180 -29.74295 -0.01392 -56.01408 -85.94440 -55.94153 -8.15925 0.78653 1.92666 -87.18973 -39.68905 -79.14255 -0.10738 -35.46094 0.07344 105.95115 71.11346 -70.72389 0.07065 -40.56327 0.00823 2.55153 18.83789 1.66255 0.00215 24.93494 -0.04997 0.18308 0.51197 0.84960 -0.00008 19.24115 -0.00682 1.76967 1.98813 1.91921 2.30810 2.15149 -0.11348 42.22315 2.35651 2.60511 28.60509 -0.00479 -0.02002 -115.18410 18.50894 -32.65173 21.78654 0.32971 0.40023 -46.40799 3.06014 -13.95771 31.46322 -0.07250 -0.03212 -27.22533 18.64043 -36.26398 4.87700 -1.04402 3.60799 -38.84870 -18.17666 4.02960 2.66498 0.00002 0.00002 -0.00000 0.00000 5.00000 2.54301 -0.00004 -0.00001 0.00001 0.00000 60.00000 9.23200 -0.30100 2.14399 2.00000 -0.00000 0.00000 4.22501 0.00000 0.00000 1.99999 0.00000 0.00000 2.65400 0.00001 0.00000 2.00000 -0.00000 -0.00000 8.92000 0.00000 -0.00001 -79.99999 -0.00000 0.00000 4.86301 -0.00001 -0.00001 -90.00000 0.00000 0.00000 2.76499 0.00000 0.00000 -70.00000 -0.00000 0.00000 8.68900 -0.12599 -2.08701 -79.99999 -0.00000 0.00000 4.53802 0.00000 0.00000 -90.00000 0.00000 0.00000 2.30501 0.00001 0.00000 -70.00000 -0.00000 0.00000 8.39100 -0.81698 -3.75800 2.00000 -0.00000 0.00000 3.04399 -0.00004 -0.00001 1.99999 0.00000 0.00000 1.97501 0.00001 0.00001 2.00000 -0.00000 -0.00000 -2.18730 -0.51024 -0.05193 12.07294 -0.22747 -6.43826 -20.34195 -0.56849 1.86284 138.48558 -8.35727 52.98707 -22.33249 0.75635 -0.61624 86.37083 20.26463 65.80164 -26.90025 -6.55912 1.10833 -7.40924 -13.88147 -15.27890 -4.87701 -1.04400 3.60801 40.90625 11.75042 -3.91528 -2.66500 0.00000 0.00000 0.00000 0.00000 -5.00000 -2.54300 -0.00001 0.00002 0.00001 0.00000 -60.00000 -9.23200 -0.30100 2.14398 -2.00001 -0.00000 0.00000 -4.22500 -0.00001 -0.00002 -2.00000 -0.00000 -0.00000 -2.65401 0.00000 0.00000 -2.00000 -0.00001 0.00001 -8.92001 0.00000 0.00000 79.99999 -0.00000 0.00001 -4.86300 -0.00001 -0.00002 90.00000 -0.00000 0.00001 -2.76499 0.00001 0.00002 70.00000 -0.00001 0.00001 -8.68900 -0.12600 -2.08702 79.99999 -0.00000 0.00001 -4.53800 -0.00001 0.00002 90.00000 -0.00000 0.00001 -2.30499 0.00001 0.00002 70.00000 -0.00001 0.00001 -8.39100 -0.81699 -3.75803 -2.00001 -0.00000 0.00000 -3.04399 0.00001 -0.00002 -2.00000 -0.00000 -0.00000 -1.97501 -0.00001 -0.00002 -2.00000 -0.00001 0.00001 0.00025 0.65428 -0.00018 0.00001 -0.00003 -0.00000 -0.02130 5.90447 0.01987 -47.61837 -45.07761 -124.05371 
